<svg xmlns="http://www.w3.org/2000/svg" viewBox="0 0 1026.41 444.7"><defs><style>.cls-1{fill:#f46b06;}.cls-2{fill:#0089e4;}</style></defs><g id="Capa_2" data-name="Capa 2"><g id="Capa_1-2" data-name="Capa 1"><path class="cls-1" d="M0,58.5Q0,42.22,16.28,31.14t41-11.07q24.09,0,41,11.07T115.28,58.5V347.66q0,11.73,11.06,16.93,5.86,2.61,18.24,2.61t17.59-2q11.07-5.21,11.07-17.58V58.5q0-16.28,16.93-27.36t41-11.07q24.09,0,41,11.07T289.16,58.5V347.66q0,12.38,10.42,16.93,5.87,2.61,18.24,2.61,16.92,0,23.12-4.56t6.18-15V58.5q0-16.28,16.94-27.36t41-11.07q24.09,0,41,11.07T463.05,58.5V348.31q0,35.18-32.56,62.52Q390.76,444.7,317.82,444.7q-27.36,0-47.87-4.23a156.65,156.65,0,0,1-38.75-13.36q-15.63,7.81-38.1,12.7a228.07,228.07,0,0,1-48.52,4.89q-72.29,0-112-33.87Q0,383.49,0,348.31Z"/><path class="cls-2" d="M925.16,84.76c14,21.16,33.81,29.41,54.34,23s34.57-26.39,33.85-48.38c-.75-23.1-15.38-41-38.09-46.74-23.76-6-49.63,10.79-55.44,36.28-1.74,7.65-2.2,15.57-3.45,23.34-4.83,30-31.74,55-69.24,49.12C813,116,791.72,84.28,797.66,49.66c5.57-32.5,36.45-55,68.9-48.56C877.2,3.2,887.61,8.7,897,14.5c9.12,5.66,8.94,10.65,3.6,19-9.86-6.58-18.92-15.37-29.75-19.31-23.32-8.48-51,6.74-59.2,30.4-8.38,24.2,4.69,52.24,28.9,62,27.55,11.11,58.42-7.37,63.72-38.25.85-5,1.28-10.07,1.72-15.12C908.68,21.92,935.54-1,968.18.12c31.81,1.09,57.4,26.06,58.2,56.78,1,39-25.77,66.15-64.5,64.74a56,56,0,0,1-36.73-15.08C917,99,917,93.69,925.16,84.76Z"/><path class="cls-1" d="M886,67.89c2.19,15.5-4.42,25.48-17.34,26.81-14.11,1.45-26-8.15-26.85-21.7-.76-11.75,9.87-22,24.37-22.35C867.48,50.74,881.12,49.57,886,67.89Z"/><path class="cls-1" d="M997.86,66.78c2.19,15.5-4.42,25.48-17.34,26.81-14.11,1.45-26-8.15-26.85-21.7-.76-11.75,9.87-22,24.37-22.35C979.36,49.63,993,48.46,997.86,66.78Z"/><path class="cls-1" d="M994.71,401.5q0,17.29-22.89,29.91t-54,12.61q-32,0-54.41-12.25T841,401.5V144.89q0-18,22.45-30.27t54.41-12.26q31.95,0,54.41,12.26t22.46,30.27Z"/><path class="cls-1" d="M488.33,47.45q0-16.59,17.26-27.89T547.43,8.28q24.55,0,41.83,11.28t17.26,27.89v79h59.1v-79q0-16.59,17.26-27.89T724.71,8.28q24.56,0,41.83,11.28t17.27,27.89V402q0,15.94-17.6,27.56t-41.5,11.62q-24.57,0-41.83-11.29T665.62,402V204.82h-59.1V402q0,15.94-17.59,27.56t-41.5,11.62q-24.57,0-41.84-11.29T488.33,402Z"/></g></g></svg>